<svg width="116" height="61" viewBox="0 0 116 61" fill="none" xmlns="http://www.w3.org/2000/svg">
<path d="M46.0234 30.6089C43.4892 30.6089 42.59 29.3911 42.59 27.0365V13.8836C42.59 11.4479 43.4892 10.3112 46.0234 10.3112H47.2496C49.7838 10.3112 50.683 11.5291 50.683 13.8836V16.6441H60.8197V24.1949H50.683V26.9553C50.683 29.3911 49.7838 30.5277 47.2496 30.5277H46.0234V30.6089ZM13.8148 24.5196L16.5125 9.82409H17.0847L19.8641 24.5196H13.8148ZM0.081192 40.1894H10.7901L12.0981 33.2882H21.4991L22.8071 40.1894H33.9247L32.6985 34.1813C34.6605 38.5656 38.9114 40.839 45.4512 40.839H46.6774C55.3426 40.839 60.0023 36.8606 60.738 29.9594V40.1894H86.652V33.6942C88.8592 38.5656 93.2736 40.839 99.9769 40.839H101.53C111.095 40.839 115.999 35.9675 115.999 26.7118V0.730717H104.718V27.1989C104.718 29.4723 103.901 30.6089 101.448 30.6089H100.059C97.5245 30.6089 96.7887 29.3911 96.7887 27.1989V0.649527H85.5075V29.3911H72.1009V0.649527H60.738V10.4736C60.0023 3.89716 55.7514 0 47.2496 0H45.4512C35.7232 0 31.3088 4.87145 31.3088 13.8836V26.9553V27.6861L25.6682 0.649527H8.33771L0.081192 40.1894Z" fill="#0055AA"/>
<path d="M0.341995 60H5.168V59.297C4.408 59.221 4.066 59.126 3.743 58.86C3.287 58.461 3.192 58.081 3.192 56.618V48.144L7.087 60H7.733L11.495 48.182V58.214C11.495 58.993 11.476 59.069 11.286 59.145C11.115 59.202 11.058 59.164 10.108 59.259L9.728 59.297V60H15.162V59.297L14.687 59.259C13.984 59.202 13.718 59.202 13.566 59.164C13.319 59.088 13.3 59.031 13.3 58.214V49.113C13.3 48.334 13.319 48.258 13.509 48.182C13.68 48.125 13.889 48.125 14.687 48.068L15.162 48.03V47.327H10.944L7.904 57.131L4.674 47.327H0.341995V48.03L0.949995 48.068C1.52 48.106 1.938 48.125 2.071 48.163C2.318 48.258 2.337 48.315 2.337 49.113V56.371C2.337 58.689 2.071 59.088 0.341995 59.297V60Z" fill="#EF404E"/>
<path d="M18.8274 49.379C19.4164 49.379 19.8914 48.904 19.8914 48.334C19.8914 47.745 19.4354 47.27 18.8464 47.27C18.2574 47.27 17.7824 47.745 17.7824 48.334C17.7824 48.904 18.2574 49.379 18.8274 49.379ZM16.7374 60H21.2214V59.335H20.9744C20.3664 59.335 19.9484 59.278 19.8534 59.183C19.7394 59.069 19.7204 59.069 19.7204 57.435V51.773C19.0364 51.849 18.5234 51.868 18.1624 51.887L16.9844 51.925L16.6234 51.944V52.59H17.0034C17.5734 52.59 17.8964 52.666 18.0484 52.837C18.2004 53.008 18.2194 53.008 18.2194 54.528V57.435C18.2194 59.069 18.2194 59.069 18.0864 59.183C17.9914 59.278 17.5734 59.335 16.9844 59.335H16.7374V60Z" fill="#EF404E"/>
<path d="M22.2928 60H26.6438V59.335H26.4918C25.8838 59.335 25.4658 59.278 25.3708 59.183C25.2378 59.069 25.2378 59.069 25.2378 57.435V56.086C25.2378 54.889 25.3518 54.3 25.7508 53.711C26.1118 53.179 26.6628 52.875 27.2898 52.875C27.8788 52.875 28.2968 53.103 28.5438 53.559C28.7908 53.977 28.8668 54.623 28.8668 55.991V57.435C28.8668 59.069 28.8668 59.069 28.7338 59.183C28.6388 59.278 28.2208 59.335 27.6508 59.335H27.4988V60H31.7928V59.335H31.6218C31.0138 59.335 30.5958 59.278 30.5008 59.183C30.3678 59.069 30.3678 59.069 30.3678 57.435V55.554C30.3678 54.338 30.2728 53.692 30.0068 53.065C29.6458 52.21 28.8858 51.754 27.7838 51.754C26.5868 51.754 25.6938 52.419 25.1238 53.73C25.1428 53.654 25.1428 53.578 25.1428 53.54C25.1428 53.16 25.1048 52.324 25.0478 51.792C24.5348 51.83 23.5658 51.887 22.1408 51.944V52.59H22.5208C23.0908 52.59 23.4138 52.666 23.5658 52.818C23.7178 53.008 23.7368 53.008 23.7368 54.528V57.435C23.7368 59.069 23.7368 59.069 23.6038 59.183C23.5088 59.278 23.0908 59.335 22.4828 59.335H22.2928V60Z" fill="#EF404E"/>
<path d="M32.9313 60H37.2823V59.335H37.1303C36.5223 59.335 36.1043 59.278 36.0093 59.183C35.8763 59.069 35.8763 59.069 35.8763 57.435V56.086C35.8763 54.889 35.9903 54.3 36.3893 53.711C36.7503 53.179 37.3013 52.875 37.9283 52.875C38.5173 52.875 38.9353 53.103 39.1823 53.559C39.4293 53.977 39.5053 54.623 39.5053 55.991V57.435C39.5053 59.069 39.5053 59.069 39.3723 59.183C39.2773 59.278 38.8593 59.335 38.2893 59.335H38.1373V60H42.4313V59.335H42.2603C41.6523 59.335 41.2343 59.278 41.1393 59.183C41.0063 59.069 41.0063 59.069 41.0063 57.435V55.554C41.0063 54.338 40.9113 53.692 40.6453 53.065C40.2843 52.21 39.5243 51.754 38.4223 51.754C37.2253 51.754 36.3323 52.419 35.7623 53.73C35.7813 53.654 35.7813 53.578 35.7813 53.54C35.7813 53.16 35.7433 52.324 35.6863 51.792C35.1733 51.83 34.2043 51.887 32.7793 51.944V52.59H33.1593C33.7293 52.59 34.0523 52.666 34.2043 52.818C34.3563 53.008 34.3753 53.008 34.3753 54.528V57.435C34.3753 59.069 34.3753 59.069 34.2423 59.183C34.1473 59.278 33.7293 59.335 33.1213 59.335H32.9313V60Z" fill="#EF404E"/>
<path d="M50.0352 57.416C49.3322 58.822 48.6292 59.354 47.5082 59.354C46.0262 59.354 45.2092 58.195 45.2092 56.048H50.6432C50.5102 53.274 49.2562 51.64 47.2232 51.64C45.1522 51.64 43.4802 53.616 43.4802 56.105C43.4802 58.556 45.0192 60.247 47.2612 60.247C48.8572 60.247 49.7882 59.544 50.6432 57.739L50.0352 57.416ZM45.2092 55.326C45.3422 53.407 46.0452 52.343 47.2042 52.343C48.2302 52.343 48.8762 53.217 48.8762 54.604C48.8762 55.25 48.7812 55.326 47.8502 55.326H45.2092Z" fill="#EF404E"/>
<path d="M52.527 60.057H53.097L53.61 59.278C54.598 60 55.206 60.247 56.023 60.247C57.6 60.247 58.759 59.126 58.759 57.606C58.759 56.713 58.322 55.934 57.6 55.535C57.125 55.269 56.745 55.155 55.586 54.927C54.313 54.68 53.743 54.243 53.743 53.521C53.743 52.856 54.351 52.362 55.149 52.362C56.251 52.362 57.049 53.103 57.733 54.813H58.265V51.83H57.638L57.277 52.438C56.498 51.887 55.909 51.678 55.149 51.678C53.705 51.678 52.641 52.704 52.641 54.129C52.641 55.497 53.42 56.276 55.168 56.656C56.441 56.922 56.441 56.922 56.84 57.074C57.353 57.264 57.619 57.625 57.619 58.138C57.619 58.898 56.935 59.468 56.004 59.468C54.636 59.468 53.61 58.48 53.097 56.675H52.527V60.057Z" fill="#EF404E"/>
<path d="M60.4896 55.934C60.4896 58.214 62.2756 60.19 64.3656 60.19C66.4366 60.19 68.2226 58.233 68.2226 55.953C68.2226 53.578 66.4936 51.64 64.3846 51.64C62.2756 51.64 60.4896 53.597 60.4896 55.934ZM64.3656 59.487C63.0546 59.487 62.2376 58.138 62.2376 55.953C62.2376 53.711 63.0356 52.343 64.3466 52.343C65.6766 52.343 66.4746 53.673 66.4746 55.915C66.4746 56.77 66.3226 57.682 66.0566 58.309C65.7526 59.012 65.0876 59.487 64.3656 59.487Z" fill="#EF404E"/>
<path d="M70.7616 58.081C70.7426 59.544 71.4266 60.266 72.7566 60.266C73.7636 60.266 74.5426 59.81 75.0176 58.936C75.3026 58.385 75.3976 57.872 75.3976 56.732H74.7516C74.7136 57.492 74.6566 57.815 74.4856 58.233C74.2386 58.803 73.7826 59.183 73.3076 59.183C72.9466 59.183 72.6046 58.974 72.4716 58.651C72.3196 58.328 72.2816 58.043 72.2816 56.922V52.666H74.8466V51.925H72.2816V48.353H71.5786C71.3886 51.07 70.7996 51.963 69.1846 51.925V52.666H70.7806V56.96L70.7616 58.081Z" fill="#EF404E"/>
<path d="M84.4157 58.746C84.1497 58.974 83.9977 59.069 83.8077 59.069C83.6367 59.069 83.5037 58.993 83.4087 58.841C83.2567 58.651 83.2377 58.442 83.2377 57.511V54.509C83.2377 53.16 83.1427 52.761 82.6677 52.324C82.2117 51.887 81.4137 51.64 80.4637 51.64C78.5827 51.64 77.1197 52.59 77.1197 53.825C77.1197 54.471 77.5377 54.927 78.1267 54.927C78.6777 54.927 79.0957 54.509 79.0957 53.958C79.0957 53.768 79.0387 53.597 78.8867 53.407C78.6967 53.179 78.6777 53.141 78.6777 53.008C78.6777 52.666 79.3807 52.343 80.1027 52.343C80.7677 52.343 81.2807 52.59 81.4897 53.008C81.6987 53.426 81.7367 53.825 81.7557 54.908C78.4117 55.421 76.6827 56.542 76.6827 58.195C76.6827 59.392 77.6327 60.19 79.0577 60.19C80.3497 60.19 81.2617 59.639 81.8697 58.48C81.9647 59.449 82.5537 60.019 83.4277 60.019C84.0547 60.019 84.4727 59.791 84.8527 59.202L84.4157 58.746ZM78.4307 57.986C78.4307 56.637 79.3617 55.972 81.7557 55.592C81.7557 56.409 81.6797 57.321 81.5847 57.682C81.3187 58.67 80.5397 59.297 79.6277 59.297C78.8677 59.297 78.4307 58.822 78.4307 57.986Z" fill="#EF404E"/>
</svg>
